<?xml version="1.0" encoding="UTF-8" standalone="no"?>
<!-- Created with Inkscape (http://www.inkscape.org/) -->

<svg
   xmlns:dc="http://purl.org/dc/elements/1.1/"
   xmlns:cc="http://creativecommons.org/ns#"
   xmlns:rdf="http://www.w3.org/1999/02/22-rdf-syntax-ns#"
   xmlns:svg="http://www.w3.org/2000/svg"
   xmlns="http://www.w3.org/2000/svg"
   xmlns:sodipodi="http://sodipodi.sourceforge.net/DTD/sodipodi-0.dtd"
   xmlns:inkscape="http://www.inkscape.org/namespaces/inkscape"
   width="100mm"
   height="250mm"
   viewBox="0 0 100 250"
   version="1.1"
   id="svg8"
   inkscape:version="0.92.1 r15371"
   sodipodi:docname="front.svg">
  <defs
     id="defs2" />
  <sodipodi:namedview
     id="base"
     pagecolor="#ffffff"
     bordercolor="#666666"
     borderopacity="1.0"
     inkscape:pageopacity="0.0"
     inkscape:pageshadow="2"
     inkscape:zoom="0.35"
     inkscape:cx="-284.28571"
     inkscape:cy="560"
     inkscape:document-units="mm"
     inkscape:current-layer="layer1"
     showgrid="false"
     inkscape:window-width="1366"
     inkscape:window-height="705"
     inkscape:window-x="-4"
     inkscape:window-y="-4"
     inkscape:window-maximized="1" />
  <metadata
     id="metadata5">
    <rdf:RDF>
      <cc:Work
         rdf:about="">
        <dc:format>image/svg+xml</dc:format>
        <dc:type
           rdf:resource="http://purl.org/dc/dcmitype/StillImage" />
        <dc:title />
      </cc:Work>
    </rdf:RDF>
  </metadata>
  <g
     inkscape:label="Layer 1"
     inkscape:groupmode="layer"
     id="layer1"
     transform="translate(0,-47)">
    <path
       style="fill:none;stroke:#000000;stroke-width:0.27654964px;stroke-linecap:butt;stroke-linejoin:miter;stroke-opacity:1"
       d="M 56.695521,297.74997 90.708294,258.92792 88.440773,61.513659 c 0,0 -13.605105,-13.216018 -37.791964,-13.216018 -24.186859,0 -40.059485,14.86802 -40.059485,14.86802 V 259.75392 l 35.524448,37.99605 z"
       id="path21"
       inkscape:connector-curvature="0" />
    <path
       style="fill:#aa0000;stroke-width:0.79046804"
       d="M 28.54776,278.42959 11.118491,259.73506 V 161.45041 63.165661 l 4.7247,-3.287509 C 25.8553,52.911601 38.10122,49.156162 50.805994,49.156162 c 12.42373,0 24.629502,3.628375 33.450893,9.943846 l 3.96875,2.841335 0.01775,21.090534 c 0.0098,11.599865 0.33153,45.081483 0.715039,74.403683 0.383511,29.3222 0.772115,64.17435 0.863571,77.44924 l 0.166285,24.13615 -16.567351,19.01539 -16.567337,19.01538 -5.43829,0.0362 -5.43829,0.0362 z"
       id="path23"
       inkscape:connector-curvature="0" />
  </g>
</svg>
